<?xml version="1.0" encoding="UTF-8" standalone="no"?>
<svg
   xmlns:dc="http://purl.org/dc/elements/1.1/"
   xmlns:cc="http://creativecommons.org/ns#"
   xmlns:rdf="http://www.w3.org/1999/02/22-rdf-syntax-ns#"
   xmlns:svg="http://www.w3.org/2000/svg"
   xmlns="http://www.w3.org/2000/svg"
   xmlns:sodipodi="http://sodipodi.sourceforge.net/DTD/sodipodi-0.dtd"
   xmlns:inkscape="http://www.inkscape.org/namespaces/inkscape"
   inkscape:version="1.0 (4035a4fb49, 2020-05-01)"
   sodipodi:docname="arrow-yellow.svg"
   xml:space="preserve"
   style="enable-background:new 0 0 512 512;"
   viewBox="0 0 512 512"
   y="0px"
   x="0px"
   id="Capa_1"
   version="1.1"><metadata
   id="metadata43"><rdf:RDF><cc:Work
       rdf:about=""><dc:format>image/svg+xml</dc:format><dc:type
         rdf:resource="http://purl.org/dc/dcmitype/StillImage" /><dc:title></dc:title></cc:Work></rdf:RDF></metadata><defs
   id="defs41" /><sodipodi:namedview
   inkscape:current-layer="Capa_1"
   inkscape:window-maximized="1"
   inkscape:window-y="-8"
   inkscape:window-x="-8"
   inkscape:cy="256"
   inkscape:cx="227.38824"
   inkscape:zoom="1.328125"
   inkscape:guide-bbox="true"
   showguides="true"
   showgrid="false"
   id="namedview39"
   inkscape:window-height="847"
   inkscape:window-width="1440"
   inkscape:pageshadow="2"
   inkscape:pageopacity="0"
   guidetolerance="10"
   gridtolerance="10"
   objecttolerance="10"
   borderopacity="1"
   bordercolor="#666666"
   pagecolor="#ffffff"><sodipodi:guide
     id="guide868"
     orientation="0,-1"
     position="499.95294,0.75294118" /></sodipodi:namedview>
<g
   transform="rotate(-135,255.9995,256)"
   style="fill:#fecc00;fill-opacity:1"
   id="g6">
	<g
   style="fill:#fecc00;fill-opacity:1"
   id="g4">
		<path
   style="fill:#fecc00;fill-opacity:1"
   id="path2"
   d="M 441.156,322.876 392.49,275.49 c -3.319,-3.243 -8.619,-3.234 -11.93,0.017 l -81.894,80.299 V 8.533 C 298.666,3.823 294.843,0 290.133,0 h -68.267 c -4.71,0 -8.533,3.823 -8.533,8.533 v 347.273 l -81.894,-80.299 c -3.311,-3.243 -8.602,-3.251 -11.921,-0.017 l -48.666,47.386 c -1.655,1.604 -2.586,3.806 -2.586,6.11 0,2.304 0.939,4.506 2.586,6.11 l 179.2,174.481 c 1.655,1.613 3.806,2.423 5.948,2.423 2.15,0 4.292,-0.811 5.956,-2.423 l 179.2,-174.481 c 1.647,-1.604 2.577,-3.806 2.577,-6.11 0,-2.304 -0.93,-4.506 -2.577,-6.11 z" />
	</g>
</g>
<g
   id="g8">
</g>
<g
   id="g10">
</g>
<g
   id="g12">
</g>
<g
   id="g14">
</g>
<g
   id="g16">
</g>
<g
   id="g18">
</g>
<g
   id="g20">
</g>
<g
   id="g22">
</g>
<g
   id="g24">
</g>
<g
   id="g26">
</g>
<g
   id="g28">
</g>
<g
   id="g30">
</g>
<g
   id="g32">
</g>
<g
   id="g34">
</g>
<g
   id="g36">
</g>
</svg>
