<?xml version="1.0" encoding="UTF-8" standalone="no"?>
<svg
   xmlns:dc="http://purl.org/dc/elements/1.1/"
   xmlns:cc="http://creativecommons.org/ns#"
   xmlns:rdf="http://www.w3.org/1999/02/22-rdf-syntax-ns#"
   xmlns:svg="http://www.w3.org/2000/svg"
   xmlns="http://www.w3.org/2000/svg"
   xmlns:sodipodi="http://sodipodi.sourceforge.net/DTD/sodipodi-0.dtd"
   xmlns:inkscape="http://www.inkscape.org/namespaces/inkscape"
   inkscape:version="1.0 (4035a4fb49, 2020-05-01)"
   sodipodi:docname="logo.svg"
   viewBox="0 0 420.85907 241.67774"
   height="241.67773"
   width="420.85907"
   xml:space="preserve"
   id="svg866"
   version="1.1"><metadata
     id="metadata872"><rdf:RDF><cc:Work
         rdf:about=""><dc:format>image/svg+xml</dc:format><dc:type
           rdf:resource="http://purl.org/dc/dcmitype/StillImage" /><dc:title></dc:title></cc:Work></rdf:RDF></metadata><defs
     id="defs870" /><sodipodi:namedview
     fit-margin-bottom="0"
     fit-margin-right="0"
     fit-margin-left="0"
     fit-margin-top="0"
     inkscape:current-layer="g874"
     inkscape:window-maximized="1"
     inkscape:window-y="-8"
     inkscape:window-x="-8"
     inkscape:cy="120.83904"
     inkscape:cx="150.18405"
     inkscape:zoom="0.60578004"
     showgrid="false"
     id="namedview868"
     inkscape:window-height="847"
     inkscape:window-width="1440"
     inkscape:pageshadow="2"
     inkscape:pageopacity="0"
     guidetolerance="10"
     gridtolerance="10"
     objecttolerance="10"
     borderopacity="1"
     bordercolor="#666666"
     pagecolor="#ffffff" /><g
     transform="matrix(1.3333333,0,0,-1.3333333,-186.41346,682.09892)"
     inkscape:label="logo"
     inkscape:groupmode="layer"
     id="g874"><path
       id="path876"
       style="fill:#ffcc00;fill-opacity:1;fill-rule:nonzero;stroke:none"
       d="m 349.7029,511.5742 c 5.4856,0 10.904,-0.4349 16.2558,-1.3045 5.3515,-0.8697 10.302,-2.6425 14.8507,-5.3184 3.4787,1.7393 7.5595,3.278 12.242,4.6159 4.6828,1.338 9.9675,2.007 15.8545,2.007 5.2177,0 10.603,-0.5018 16.1555,-1.5052 5.5522,-1.0035 10.5695,-3.1108 15.0514,-6.3219 4.4821,-3.2108 8.1612,-7.8267 11.0378,-13.8475 2.8766,-6.0205 4.3149,-13.981 4.3149,-23.8816 v -60.0057 c -3.4787,-0.669 -6.6229,-1.1039 -9.4323,-1.3046 -2.8097,-0.2006 -5.2849,-0.301 -7.4256,-0.301 -2.2746,0 -4.8164,0.1004 -7.6261,0.301 -2.8097,0.2007 -5.9536,0.6356 -9.4323,1.3046 v 56.3932 c 0,7.0909 -1.2041,12.1751 -3.6124,15.2524 -2.4084,3.077 -6.355,4.6157 -11.8406,4.6157 -1.8732,0 -3.7126,-0.2007 -5.5188,-0.6021 -1.8063,-0.4014 -3.0439,-0.7359 -3.7128,-1.0035 1.2041,-4.6825 1.8062,-10.0343 1.8062,-16.0548 v -58.6009 c -3.4787,-0.669 -6.6229,-1.1039 -9.4323,-1.3046 -2.8097,-0.2006 -5.2849,-0.301 -7.4256,-0.301 -2.2743,0 -4.8164,0.1004 -7.6261,0.301 -2.8097,0.2007 -5.9536,0.6356 -9.4322,1.3046 v 56.3932 c 0,7.0909 -1.1373,12.1751 -3.4118,15.2524 -2.2745,3.077 -6.1543,4.6157 -11.6399,4.6157 -1.4718,0 -3.0436,-0.1338 -4.716,-0.4014 -1.6725,-0.2676 -2.7094,-0.5352 -3.1108,-0.8028 v -75.0571 c -3.4787,-0.669 -6.6226,-1.1039 -9.4323,-1.3046 -2.8097,-0.2006 -5.2849,-0.301 -7.4256,-0.301 -2.2742,0 -4.8163,0.1004 -7.626,0.301 -2.8097,0.2007 -5.9536,0.6356 -9.4323,1.3046 v 98.5376 c 4.6828,1.6056 10.3019,3.1777 16.8576,4.7163 6.556,1.5387 14.851,2.308 24.8854,2.308" /><path
       id="path878"
       style="fill:#ffffff;fill-opacity:1;fill-rule:nonzero;stroke:none"
       d="m 245.5727,511.5742 c -5.4856,0 -10.904,-0.4349 -16.2558,-1.3045 -5.3515,-0.8697 -10.302,-2.6425 -14.8507,-5.3184 -3.4787,1.7393 -7.5595,3.278 -12.242,4.6159 -4.6828,1.338 -9.9675,2.007 -15.8545,2.007 -5.2177,0 -10.603,-0.5018 -16.1555,-1.5052 -5.5522,-1.0035 -10.5695,-3.1108 -15.0514,-6.3219 -4.4821,-3.2108 -8.1612,-7.8267 -11.0378,-13.8475 -2.8766,-6.0205 -4.3149,-13.981 -4.3149,-23.8816 v -60.0057 c 3.4787,-0.669 6.6229,-1.1039 9.4323,-1.3046 2.8097,-0.2006 5.2849,-0.301 7.4256,-0.301 2.2746,0 4.8164,0.1004 7.6261,0.301 2.8097,0.2007 5.9536,0.6356 9.4323,1.3046 v 56.3932 c 0,7.0909 1.2041,12.1751 3.6124,15.2524 2.4083,3.077 6.355,4.6157 11.8406,4.6157 1.8732,0 3.7126,-0.2007 5.5188,-0.6021 1.8062,-0.4014 3.0438,-0.7359 3.7128,-1.0035 -1.2041,-4.6825 -1.8062,-10.0343 -1.8062,-16.0548 v -58.6009 c 3.4787,-0.669 6.6229,-1.1039 9.4323,-1.3046 2.8097,-0.2006 5.2849,-0.301 7.4256,-0.301 2.2742,0 4.8164,0.1004 7.6261,0.301 2.8097,0.2007 5.9536,0.6356 9.4322,1.3046 v 56.3932 c 0,7.0909 1.1373,12.1751 3.4118,15.2524 2.2745,3.077 6.1543,4.6157 11.6399,4.6157 1.4718,0 3.0436,-0.1338 4.716,-0.4014 1.6725,-0.2676 2.7094,-0.5352 3.1108,-0.8028 v -75.0571 c 3.4786,-0.669 6.6225,-1.1039 9.4322,-1.3046 2.8097,-0.2006 5.285,-0.301 7.4257,-0.301 2.2742,0 4.8163,0.1004 7.626,0.301 2.8097,0.2007 5.9536,0.6356 9.4323,1.3046 v 98.5376 c -4.6828,1.6056 -10.3019,3.1777 -16.8576,4.7163 -6.556,1.5387 -14.851,2.308 -24.8854,2.308" /><path
       id="path880"
       style="fill:#ffcc00;fill-opacity:1;fill-rule:nonzero;stroke:none"
       d="m 143.729,388.8981 c 1.1251,0.1607 2.3437,0.3081 3.6564,0.4422 1.3125,0.1338 2.5314,0.2007 3.6564,0.2007 1.0715,0 2.2366,-0.0669 3.4957,-0.2007 1.2589,-0.1341 2.4242,-0.2815 3.4957,-0.4422 l 11.4111,-29.8939 11.8129,29.8939 c 1.0715,0.1607 2.1563,0.3081 3.2547,0.4422 1.0981,0.1338 2.183,0.2007 3.2545,0.2007 1.125,0 2.2767,-0.0669 3.4554,-0.2007 1.1786,-0.1341 2.3306,-0.2815 3.4554,-0.4422 l 2.7323,-57.3772 c -0.8572,-0.1607 -1.8079,-0.3212 -2.8527,-0.4819 -1.0446,-0.1607 -2.4242,-0.2412 -4.1386,-0.2412 -1.8749,0 -4.0984,0.2412 -6.6699,0.7231 l -1.1248,33.2694 -8.8399,-21.9385 c -0.9643,-0.1607 -1.9287,-0.2945 -2.8927,-0.4017 -0.9644,-0.1071 -1.8485,-0.1607 -2.6521,-0.1607 -0.8037,0 -1.6339,0.04 -2.4911,0.1205 -0.8572,0.0802 -1.7411,0.2276 -2.6518,0.4419 l -7.8755,21.617 -0.8839,-32.9479 c -2.2501,-0.4819 -4.3931,-0.7231 -6.4287,-0.7231 -1.8751,0 -4.045,0.2412 -6.5092,0.7231 z m 61.53,-44.0374 c 0,2.6252 0.5624,4.7948 1.6874,6.5092 1.1251,1.7144 2.5716,3.0804 4.3396,4.0984 1.768,1.0179 3.7233,1.7277 5.8663,2.1296 2.143,0.4017 4.2321,0.6027 6.268,0.6027 h 4.9019 c -0.0536,0.9643 -0.3214,1.7679 -0.8036,2.4108 -0.4822,0.6429 -1.0982,1.1384 -1.8482,1.4868 -0.7501,0.3481 -1.5803,0.5893 -2.4911,0.7231 -0.9108,0.1338 -1.8485,0.201 -2.8128,0.201 -1.2855,0 -2.7856,-0.1474 -4.5,-0.4419 -1.7144,-0.2948 -3.4824,-0.7637 -5.3039,-1.4066 -0.4822,0.9108 -0.8972,1.7413 -1.2456,2.4914 -0.3481,0.75 -0.6159,1.5134 -0.8036,2.2901 -0.1874,0.777 -0.3214,1.5806 -0.4017,2.4109 -0.0805,0.8302 -0.1204,1.7813 -0.1204,2.8528 2.5713,0.8572 5.1296,1.5001 7.6742,1.9287 2.5447,0.4286 4.8351,0.6429 6.8709,0.6429 2.7859,0 5.3036,-0.3348 7.5538,-1.0046 2.2501,-0.6696 4.1655,-1.7008 5.7458,-3.0938 1.5803,-1.3929 2.7992,-3.1742 3.6564,-5.3441 0.8572,-2.1697 1.2858,-4.7546 1.2858,-7.7548 v -23.5454 c -2.0358,-0.5893 -4.5003,-1.1786 -7.3933,-1.768 -2.8928,-0.5893 -5.9465,-0.8838 -9.161,-0.8838 -2.7859,0 -5.3439,0.2543 -7.6743,0.7634 -2.3306,0.5088 -4.3262,1.3257 -5.987,2.4508 -1.6608,1.1251 -2.96,2.6118 -3.8974,4.46 -0.9377,1.8482 -1.4062,4.112 -1.4062,6.7904 z m 18.9649,-4.5 c 0.4821,0 1.1786,0.0536 2.0894,0.1607 0.9108,0.1072 1.5803,0.2143 2.0089,0.3215 v 8.8396 h -4.5805 c -1.8751,0 -3.4554,-0.402 -4.7412,-1.2053 -1.2858,-0.8037 -1.9287,-1.9287 -1.9287,-3.3752 0,-1.0715 0.2412,-1.9154 0.7234,-2.5314 0.4822,-0.6162 1.0848,-1.0848 1.8079,-1.4063 0.7234,-0.3214 1.5001,-0.5357 2.3307,-0.6429 0.8302,-0.1071 1.5936,-0.1607 2.2901,-0.1607 z m 26.7341,21.1346 c -0.2679,1.0715 -0.4422,2.0761 -0.5224,3.0135 -0.0805,0.9377 -0.1205,1.8349 -0.1205,2.6921 0,0.8571 0.04,1.7413 0.1205,2.652 0.0802,0.9108 0.2545,1.9018 0.5224,2.9733 h 21.6167 v -25.5546 c 0,-3.0538 -0.4419,-5.6653 -1.3258,-7.835 -0.8841,-2.1699 -2.1163,-3.9243 -3.6966,-5.2636 -1.5803,-1.3394 -3.4288,-2.3171 -5.5449,-2.9333 -2.116,-0.616 -4.4064,-0.9241 -6.8709,-0.9241 -0.8036,0 -1.942,0.0938 -3.4151,0.2812 -1.4735,0.1876 -3.0136,0.5493 -4.6208,1.0848 -0.0536,0.4286 -0.0938,0.8439 -0.1205,1.2458 -0.0269,0.4017 -0.0402,0.817 -0.0402,1.2456 0,1.3929 0.1338,2.7859 0.4016,4.1785 0.2679,1.393 0.6429,2.8395 1.1251,4.3396 0.2143,-0.0536 0.5358,-0.1205 0.9644,-0.201 0.4286,-0.0802 0.8974,-0.1471 1.4062,-0.2007 0.5091,-0.0536 0.9913,-0.1071 1.4465,-0.1607 0.4556,-0.0536 0.817,-0.0805 1.0849,-0.0805 0.5893,0 1.2189,0.0402 1.8884,0.1205 0.6698,0.0805 1.2858,0.3214 1.8485,0.7234 0.5624,0.4016 1.0179,1.0043 1.366,1.8079 0.3484,0.8036 0.5224,1.9287 0.5224,3.3752 v 13.4201 z m 29.2249,-9.6432 c 0,3.2681 0.4419,6.2546 1.326,8.9603 0.8839,2.7054 2.1966,5.0224 3.9377,6.9511 1.741,1.9287 3.8973,3.4152 6.4689,4.4601 2.5716,1.0445 5.5448,1.567 8.9201,1.567 3.4287,0 6.4287,-0.5225 9.0002,-1.567 2.5716,-1.0449 4.7279,-2.5314 6.469,-4.4601 1.7413,-1.9287 3.0538,-4.2457 3.9379,-6.9511 0.8838,-2.7057 1.3257,-5.6922 1.3257,-8.9603 0,-3.2145 -0.4419,-6.1475 -1.3257,-8.7993 -0.8841,-2.6521 -2.1966,-4.9289 -3.9379,-6.8307 -1.7411,-1.902 -3.8974,-3.3618 -6.469,-4.3798 -2.5715,-1.0176 -5.5715,-1.5267 -9.0002,-1.5267 -3.3753,0 -6.3485,0.5091 -8.9201,1.5267 -2.5716,1.018 -4.7279,2.4778 -6.4689,4.3798 -1.7411,1.9018 -3.0538,4.1786 -3.9377,6.8307 -0.8841,2.6518 -1.326,5.5848 -1.326,8.7993 z m 27.644,0 c 0,3.4288 -0.576,6.0539 -1.7277,7.8755 -1.152,1.8213 -2.9063,2.732 -5.2636,2.732 -2.3573,0 -4.0984,-0.9107 -5.2234,-2.732 -1.1251,-1.8216 -1.6875,-4.4467 -1.6875,-7.8755 0,-3.3749 0.5624,-5.9735 1.6875,-7.795 1.125,-1.8213 2.8661,-2.732 5.2234,-2.732 2.3573,0 4.1116,0.9107 5.2636,2.732 1.1517,1.8215 1.7277,4.4201 1.7277,7.795 z m 21.9926,20.8134 c 2.5178,0.3214 5.1296,0.5893 7.835,0.8036 2.7054,0.2143 5.2636,0.3215 7.6745,0.3215 6.4823,0 11.3443,-1.2189 14.5854,-3.6565 3.2411,-2.4375 4.8617,-5.8529 4.8617,-10.2458 0,-1.6608 -0.1874,-3.1073 -0.5624,-4.3395 -0.375,-1.2323 -0.8306,-2.2904 -1.3663,-3.1743 -0.5357,-0.8841 -1.0981,-1.5939 -1.6875,-2.1296 -0.5893,-0.5358 -1.0715,-0.9644 -1.4465,-1.2858 l 9.161,-17.5184 c -1.0715,-0.2143 -2.2634,-0.3751 -3.5759,-0.4822 -1.3127,-0.1072 -2.5849,-0.1607 -3.8171,-0.1607 -1.5001,0 -2.9466,0.0535 -4.3396,0.1607 -1.3929,0.1071 -2.5446,0.2679 -3.4554,0.4822 l -8.9201,18.9649 1.1251,0.6429 c 1.8751,1.0715 3.1609,2.2099 3.8574,3.4154 0.6965,1.2053 1.0446,2.5044 1.0446,3.8974 0,1.3929 -0.415,2.5313 -1.2456,3.4155 -0.8303,0.8838 -2.1563,1.3257 -3.9778,1.3257 -1.018,0 -1.7947,-0.0536 -2.3304,-0.1607 v -31.5816 c -1.393,-0.2676 -2.6518,-0.442 -3.7769,-0.5222 -1.1251,-0.0805 -2.1163,-0.1205 -2.9733,-0.1205 -0.9107,0 -1.902,0.04 -2.9735,0.1205 -1.0715,0.0802 -2.3037,0.2546 -3.6964,0.5222 z" /><path
       id="path882"
       style="fill:#ffffff;fill-opacity:1;fill-rule:nonzero;stroke:none"
       d="m 390.056,340.2933 c 0.5939,-0.1585 1.1333,-0.3515 1.6183,-0.5792 0.485,-0.2276 0.9006,-0.5195 1.2473,-0.8759 0.3464,-0.3563 0.6185,-0.792 0.8164,-1.3065 0.1981,-0.5147 0.297,-1.1383 0.297,-1.8708 0,-0.7523 -0.1533,-1.455 -0.4603,-2.1084 -0.3067,-0.6531 -0.7623,-1.2175 -1.366,-1.6926 -0.6038,-0.4751 -1.3462,-0.8512 -2.2269,-1.1282 -0.881,-0.2772 -1.8956,-0.4158 -3.0439,-0.4158 -0.9502,0 -1.8312,0.0691 -2.6427,0.2078 -0.8116,0.1386 -1.6727,0.3761 -2.5835,0.7126 0.0989,1.3462 0.4652,2.7122 1.0987,4.098 0.6335,-0.297 1.2966,-0.5198 1.9896,-0.6681 0.6928,-0.1485 1.3856,-0.2228 2.0787,-0.2228 0.2375,0 0.485,0.01 0.7424,0.0298 0.2571,0.0198 0.485,0.0643 0.6828,0.1335 0.1979,0.0694 0.3615,0.1633 0.4899,0.282 0.1287,0.1188 0.193,0.2773 0.193,0.4751 0,0.2574 -0.1287,0.4504 -0.3858,0.5791 -0.2574,0.1287 -0.5544,0.2427 -0.8909,0.3416 l -2.0194,0.5641 c -1.0491,0.2971 -1.9202,0.8019 -2.613,1.5145 -0.6928,0.7127 -1.0395,1.6827 -1.0395,2.9101 0,0.7722 0.1585,1.4749 0.4754,2.1084 0.3166,0.6333 0.762,1.1727 1.3363,1.6183 0.574,0.4453 1.252,0.7869 2.0338,1.0244 0.7821,0.2376 1.6481,0.3564 2.5985,0.3564 0.7521,0 1.5738,-0.0791 2.4645,-0.2376 0.8909,-0.1584 1.7719,-0.3861 2.643,-0.6831 -0.0397,-0.6333 -0.1684,-1.3113 -0.3861,-2.0339 -0.2177,-0.7225 -0.4651,-1.3612 -0.7424,-1.9154 -0.5346,0.2177 -1.1781,0.4159 -1.9301,0.5939 -0.7523,0.1783 -1.4451,0.2673 -2.0786,0.2673 -0.9306,0 -1.3958,-0.2574 -1.3958,-0.7722 0,-0.2177 0.1088,-0.386 0.3268,-0.5048 0.2177,-0.1188 0.4652,-0.2177 0.7421,-0.2968 z m 9.7597,-4.3059 c 0.396,0 0.8017,-0.0198 1.2175,-0.0592 0.4156,-0.0397 0.8512,-0.089 1.3065,-0.1485 0.0791,-0.4553 0.1386,-0.891 0.1783,-1.3065 0.0394,-0.4159 0.0592,-0.8215 0.0592,-1.2175 0,-0.396 -0.0198,-0.8019 -0.0592,-1.2175 -0.0397,-0.4158 -0.0992,-0.8512 -0.1783,-1.3065 -0.4553,-0.0794 -0.8909,-0.1386 -1.3065,-0.1783 -0.4158,-0.0397 -0.8215,-0.0595 -1.2175,-0.0595 -0.396,0 -0.8019,0.0198 -1.2175,0.0595 -0.4158,0.0397 -0.8512,0.0989 -1.3065,0.1783 -0.0793,0.4553 -0.1386,0.8907 -0.1783,1.3065 -0.0396,0.4156 -0.0592,0.8215 -0.0592,1.2175 0,0.396 0.0196,0.8016 0.0592,1.2175 0.0397,0.4155 0.099,0.8512 0.1783,1.3065 0.4553,0.0595 0.8907,0.1088 1.3065,0.1485 0.4156,0.0394 0.8215,0.0592 1.2175,0.0592 z m 6.5231,9.9774 c 0.9306,0.1188 1.8955,0.218 2.8953,0.2971 0.9998,0.0791 1.9451,0.1188 2.8358,0.1188 2.3955,0 4.1919,-0.4505 5.3895,-1.351 1.1979,-0.9009 1.7966,-2.1629 1.7966,-3.7863 0,-0.6137 -0.0692,-1.148 -0.2078,-1.6035 -0.1386,-0.4553 -0.307,-0.8462 -0.5048,-1.173 -0.1979,-0.3266 -0.406,-0.5888 -0.6237,-0.7869 -0.2177,-0.1979 -0.396,-0.3563 -0.5343,-0.4751 l 3.3852,-6.4732 c -0.396,-0.0794 -0.8366,-0.1386 -1.3216,-0.1783 -0.485,-0.0397 -0.9552,-0.0595 -1.4105,-0.0595 -0.5542,0 -1.0888,0.0198 -1.6035,0.0595 -0.5145,0.0397 -0.9403,0.0989 -1.2768,0.1783 l -3.2961,7.0078 0.4159,0.2376 c 0.6927,0.396 1.1678,0.8166 1.4252,1.262 0.2574,0.4453 0.3861,0.9255 0.3861,1.4402 0,0.5148 -0.1536,0.9355 -0.4604,1.262 -0.3069,0.3266 -0.7968,0.4898 -1.4697,0.4898 -0.3762,0 -0.6633,-0.0195 -0.8612,-0.0592 V 330.702 c -0.5148,-0.099 -0.9799,-0.1633 -1.3958,-0.1931 -0.4158,-0.0298 -0.782,-0.0445 -1.0987,-0.0445 -0.3364,0 -0.7027,0.0147 -1.0987,0.0445 -0.396,0.0298 -0.8512,0.0941 -1.366,0.1931 z m 19.4998,-9.9774 c 0.396,0 0.8017,-0.0198 1.2175,-0.0592 0.4156,-0.0397 0.8512,-0.089 1.3065,-0.1485 0.0791,-0.4553 0.1386,-0.891 0.1783,-1.3065 0.0394,-0.4159 0.0592,-0.8215 0.0592,-1.2175 0,-0.396 -0.0198,-0.8019 -0.0592,-1.2175 -0.0397,-0.4158 -0.0992,-0.8512 -0.1783,-1.3065 -0.4553,-0.0794 -0.8909,-0.1386 -1.3065,-0.1783 -0.4158,-0.0397 -0.8215,-0.0595 -1.2175,-0.0595 -0.396,0 -0.8019,0.0198 -1.2175,0.0595 -0.4158,0.0397 -0.8512,0.0989 -1.3065,0.1783 -0.0793,0.4553 -0.1386,0.8907 -0.1783,1.3065 -0.0396,0.4156 -0.0592,0.8215 -0.0592,1.2175 0,0.396 0.0196,0.8016 0.0592,1.2175 0.0397,0.4155 0.099,0.8512 0.1783,1.3065 0.4553,0.0595 0.8907,0.1088 1.3065,0.1485 0.4156,0.0394 0.8215,0.0592 1.2175,0.0592 z m 5.7807,2.2867 c 0,1.2076 0.1636,2.3111 0.4901,3.3109 0.3266,0.9998 0.8116,1.8559 1.455,2.5685 0.6435,0.7126 1.4403,1.262 2.3905,1.648 0.9502,0.3861 2.0489,0.5792 3.2961,0.5792 1.2668,0 2.3755,-0.1931 3.3256,-0.5792 0.9505,-0.386 1.7473,-0.9354 2.3905,-1.648 0.6435,-0.7126 1.1285,-1.5687 1.455,-2.5685 0.3268,-0.9998 0.4901,-2.1033 0.4901,-3.3109 0,-1.188 -0.1633,-2.2716 -0.4901,-3.2516 -0.3265,-0.9799 -0.8115,-1.8212 -1.455,-2.5242 -0.6432,-0.7027 -1.44,-1.2422 -2.3905,-1.6183 -0.9501,-0.3762 -2.0588,-0.5641 -3.3256,-0.5641 -1.2472,0 -2.3459,0.1879 -3.2961,0.5641 -0.9502,0.3761 -1.747,0.9156 -2.3905,1.6183 -0.6434,0.703 -1.1284,1.5443 -1.455,2.5242 -0.3265,0.98 -0.4901,2.0636 -0.4901,3.2516 z m 10.2152,0 c 0,1.2668 -0.2129,2.2369 -0.6386,2.9101 -0.4255,0.6729 -1.0738,1.0094 -1.9449,1.0094 -0.8711,0 -1.5145,-0.3365 -1.9301,-1.0094 -0.4158,-0.6732 -0.6236,-1.6433 -0.6236,-2.9101 0,-1.2472 0.2078,-2.2073 0.6236,-2.8805 0.4156,-0.673 1.059,-1.0094 1.9301,-1.0094 0.8711,0 1.5194,0.3364 1.9449,1.0094 0.4257,0.6732 0.6386,1.6333 0.6386,2.8805 z m 10.8584,-2.2867 c 0.396,0 0.8017,-0.0198 1.2175,-0.0592 0.4156,-0.0397 0.8512,-0.089 1.3065,-0.1485 0.0791,-0.4553 0.1386,-0.891 0.1783,-1.3065 0.0394,-0.4159 0.0592,-0.8215 0.0592,-1.2175 0,-0.396 -0.0198,-0.8019 -0.0592,-1.2175 -0.0397,-0.4158 -0.0992,-0.8512 -0.1783,-1.3065 -0.4553,-0.0794 -0.8909,-0.1386 -1.3065,-0.1783 -0.4158,-0.0397 -0.8215,-0.0595 -1.2175,-0.0595 -0.396,0 -0.8019,0.0198 -1.2175,0.0595 -0.4158,0.0397 -0.8512,0.0989 -1.3065,0.1783 -0.0793,0.4553 -0.1386,0.8907 -0.1783,1.3065 -0.0396,0.4156 -0.0592,0.8215 -0.0592,1.2175 0,0.396 0.0196,0.8016 0.0592,1.2175 0.0397,0.4155 0.099,0.8512 0.1783,1.3065 0.4553,0.0595 0.8907,0.1088 1.3065,0.1485 0.4156,0.0394 0.8215,0.0592 1.2175,0.0592" /></g></svg>
