<?xml version="1.0" encoding="UTF-8" standalone="no"?>
<svg
   xmlns:dc="http://purl.org/dc/elements/1.1/"
   xmlns:cc="http://creativecommons.org/ns#"
   xmlns:rdf="http://www.w3.org/1999/02/22-rdf-syntax-ns#"
   xmlns:svg="http://www.w3.org/2000/svg"
   xmlns="http://www.w3.org/2000/svg"
   xmlns:sodipodi="http://sodipodi.sourceforge.net/DTD/sodipodi-0.dtd"
   xmlns:inkscape="http://www.inkscape.org/namespaces/inkscape"
   inkscape:version="1.0 (4035a4fb49, 2020-05-01)"
   sodipodi:docname="plane.svg"
   id="svg6"
   version="1.1"
   width="512"
   viewBox="0 0 24 24"
   height="512"
   enable-background="new 0 0 24 24">
  <metadata
     id="metadata12">
    <rdf:RDF>
      <cc:Work
         rdf:about="">
        <dc:format>image/svg+xml</dc:format>
        <dc:type
           rdf:resource="http://purl.org/dc/dcmitype/StillImage" />
        <dc:title></dc:title>
      </cc:Work>
    </rdf:RDF>
  </metadata>
  <defs
     id="defs10" />
  <sodipodi:namedview
     inkscape:current-layer="svg6"
     inkscape:window-maximized="1"
     inkscape:window-y="-8"
     inkscape:window-x="-8"
     inkscape:cy="345.86274"
     inkscape:cx="227.38824"
     inkscape:zoom="1.328125"
     showgrid="false"
     id="namedview8"
     inkscape:window-height="847"
     inkscape:window-width="1440"
     inkscape:pageshadow="2"
     inkscape:pageopacity="0"
     guidetolerance="10"
     gridtolerance="10"
     objecttolerance="10"
     borderopacity="1"
     bordercolor="#666666"
     pagecolor="#ffffff" />
  <path
     style="fill:#fecc00;fill-opacity:1"
     id="path2"
     d="m20.5 20c-.082 0-.164-.014-.242-.04l-19.75-6.75c-.284-.098-.482-.354-.506-.653-.022-.299.135-.583.4-.722l22.5-11.75c.251-.129.554-.109.782.054.23.164.349.442.308.722l-2.75 18.5c-.033.22-.162.414-.353.53-.118.072-.253.109-.389.109zm-17.854-7.645 17.244 5.894 2.401-16.152z" />
  <path
     style="fill:#fecc00;fill-opacity:1"
     id="path4"
     d="m9.5 23c-.078 0-.157-.012-.233-.037-.309-.102-.517-.389-.517-.713v-6.75c0-.189.072-.373.201-.512l13.75-14.75c.282-.304.759-.319 1.061-.037.303.282.319.757.037 1.061l-13.549 14.533v4.168l2.503-3.407c.245-.332.715-.406 1.049-.16.334.245.405.715.16 1.049l-3.857 5.25c-.145.195-.371.305-.605.305z" />
</svg>
