<?xml version="1.0" encoding="UTF-8" standalone="no"?>
<svg
   xmlns:dc="http://purl.org/dc/elements/1.1/"
   xmlns:cc="http://creativecommons.org/ns#"
   xmlns:rdf="http://www.w3.org/1999/02/22-rdf-syntax-ns#"
   xmlns:svg="http://www.w3.org/2000/svg"
   xmlns="http://www.w3.org/2000/svg"
   xmlns:sodipodi="http://sodipodi.sourceforge.net/DTD/sodipodi-0.dtd"
   xmlns:inkscape="http://www.inkscape.org/namespaces/inkscape"
   inkscape:version="1.0 (4035a4fb49, 2020-05-01)"
   sodipodi:docname="smartphone.svg"
   xml:space="preserve"
   style="enable-background:new 0 0 477.867 477.867;"
   viewBox="0 0 477.867 477.867"
   y="0px"
   x="0px"
   id="Capa_1"
   version="1.1"><metadata
   id="metadata55"><rdf:RDF><cc:Work
       rdf:about=""><dc:format>image/svg+xml</dc:format><dc:type
         rdf:resource="http://purl.org/dc/dcmitype/StillImage" /><dc:title></dc:title></cc:Work></rdf:RDF></metadata><defs
   id="defs53" /><sodipodi:namedview
   inkscape:current-layer="Capa_1"
   inkscape:window-maximized="1"
   inkscape:window-y="-8"
   inkscape:window-x="-8"
   inkscape:cy="310.53087"
   inkscape:cx="212.22917"
   inkscape:zoom="1.4229901"
   showgrid="false"
   id="namedview51"
   inkscape:window-height="847"
   inkscape:window-width="1440"
   inkscape:pageshadow="2"
   inkscape:pageopacity="0"
   guidetolerance="10"
   gridtolerance="10"
   objecttolerance="10"
   borderopacity="1"
   bordercolor="#666666"
   pagecolor="#ffffff" />
<g
   style="fill:#fecc00;fill-opacity:1"
   id="g6">
	<g
   style="fill:#fecc00;fill-opacity:1"
   id="g4">
		<path
   style="fill:#fecc00;fill-opacity:1"
   id="path2"
   d="M358.4,0H119.467c-28.277,0-51.2,22.923-51.2,51.2v375.467c0,28.277,22.923,51.2,51.2,51.2H358.4    c28.277,0,51.2-22.923,51.2-51.2V51.2C409.6,22.923,386.677,0,358.4,0z M375.467,426.667c0,9.426-7.641,17.067-17.067,17.067    H119.467c-9.426,0-17.067-7.641-17.067-17.067v-34.133h273.067V426.667z M375.467,358.4H102.4V119.467h273.067V358.4z     M375.467,85.333H102.4V51.2c0-9.426,7.641-17.067,17.067-17.067H358.4c9.426,0,17.067,7.641,17.067,17.067V85.333z" />
	</g>
</g>
<g
   style="fill:#fecc00;fill-opacity:1"
   id="g12">
	<g
   style="fill:#fecc00;fill-opacity:1"
   id="g10">
		<path
   style="fill:#fecc00;fill-opacity:1"
   id="path8"
   d="M250.58,158.601c-6.614-6.387-17.099-6.387-23.712,0l-85.333,85.333c-6.663,6.665-6.663,17.468,0,24.132    c6.665,6.663,17.468,6.663,24.132,0l85.333-85.333C257.547,175.953,257.36,165.149,250.58,158.601z" />
	</g>
</g>
<g
   style="fill:#fecc00;fill-opacity:1"
   id="g18">
	<g
   style="fill:#fecc00;fill-opacity:1"
   id="g16">
		<path
   style="fill:#fecc00;fill-opacity:1"
   id="path14"
   d="M335.913,192.734c-6.614-6.387-17.099-6.387-23.712,0l-85.333,85.333c-5.127,6.281-3.566,16.577,0,24.132    c6.664,6.663,17.468,6.663,24.132,0l85.333-85.333C342.881,210.086,342.693,199.282,335.913,192.734z" />
	</g>
</g>
<g
   id="g20">
</g>
<g
   id="g22">
</g>
<g
   id="g24">
</g>
<g
   id="g26">
</g>
<g
   id="g28">
</g>
<g
   id="g30">
</g>
<g
   id="g32">
</g>
<g
   id="g34">
</g>
<g
   id="g36">
</g>
<g
   id="g38">
</g>
<g
   id="g40">
</g>
<g
   id="g42">
</g>
<g
   id="g44">
</g>
<g
   id="g46">
</g>
<g
   id="g48">
</g>
</svg>
